<?xml version="1.0" standalone="no"?>
<!DOCTYPE svg PUBLIC "-//W3C//DTD SVG 20010904//EN"
 "http://www.w3.org/TR/2001/REC-SVG-20010904/DTD/svg10.dtd">
<svg version="1.0" xmlns="http://www.w3.org/2000/svg"
 width="700.000000pt" height="700.000000pt" viewBox="0 0 700.000000 700.000000"
 preserveAspectRatio="xMidYMid meet">
<metadata>
Created by potrace 1.14, written by Peter Selinger 2001-2017
</metadata>
<g transform="translate(0.000000,700.000000) scale(0.100000,-0.100000)"
fill="#000000" stroke="none">
<path d="M2544 5740 c-109 -145 -132 -170 -155 -170 -14 0 -46 -3 -70 -6 -44
-6 -44 -5 -186 110 -78 64 -146 116 -150 116 -4 0 -36 -69 -71 -153 l-62 -152
-163 -43 -162 -42 -95 58 c-52 32 -130 80 -173 107 -42 26 -80 45 -83 42 -7
-7 -105 -339 -101 -343 1 -2 23 10 48 27 100 65 248 89 360 59 254 -69 407
-340 344 -608 -49 -206 -210 -352 -420 -377 -68 -9 -181 16 -256 56 -69 37
-158 128 -193 198 -92 180 -76 397 40 559 l17 22 -49 -20 c-178 -76 -515 -291
-642 -408 -38 -36 -41 -43 -32 -64 6 -12 43 -45 82 -73 64 -45 98 -79 98 -97
0 -19 -39 -40 -115 -63 -139 -43 -127 -6 -126 -390 3 -590 37 -896 141 -1248
48 -161 75 -233 86 -228 22 11 114 138 110 151 -73 259 -126 493 -114 505 5 5
1419 38 1423 33 2 -2 12 -65 23 -141 11 -77 22 -140 24 -142 4 -5 262 183 266
193 1 4 -35 26 -80 49 l-83 41 75 5 c41 4 343 11 670 17 327 5 676 13 775 16
164 5 178 4 161 -10 -11 -9 -18 -18 -15 -20 2 -3 70 -41 149 -85 l145 -80 3
103 3 102 547 11 c301 6 548 10 549 9 1 -1 -2 -65 -7 -142 -33 -486 -216 -976
-491 -1311 -55 -67 -59 -75 -59 -123 0 -44 -3 -51 -16 -46 -56 22 -62 19 -131
-44 -212 -195 -549 -356 -887 -424 -72 -15 -131 -28 -131 -29 -1 -1 -23 -35
-48 -75 -26 -39 -50 -72 -53 -72 -4 0 -39 26 -78 58 l-71 59 -235 6 c-407 10
-698 59 -1000 169 -201 72 -436 202 -596 329 l-60 48 -107 -11 c-59 -6 -106
-14 -105 -18 6 -13 140 -130 213 -184 100 -76 210 -144 336 -206 57 -29 105
-53 106 -54 1 -1 10 -48 19 -105 10 -59 23 -105 30 -108 7 -2 79 14 161 37
162 46 151 45 338 6 287 -61 585 -84 865 -67 655 40 1101 217 1494 592 l105
100 143 17 c79 10 142 22 142 27 -17 126 -38 261 -41 264 -2 3 -14 -6 -28 -19
-20 -19 -17 -9 18 52 24 41 63 118 87 169 l44 94 235 0 c241 0 304 6 465 46
144 36 245 105 261 177 9 44 -10 102 -56 171 -50 75 -106 124 -186 162 -111
53 -298 89 -462 89 l-74 0 8 53 c3 28 10 104 15 168 11 156 40 214 131 264 96
52 206 39 654 -75 419 -106 483 -110 592 -37 101 69 145 207 145 452 -1 244
-41 386 -133 469 -60 54 -115 70 -212 64 -67 -5 -100 -18 -442 -168 -404 -177
-412 -179 -516 -145 -74 25 -120 73 -194 202 -37 65 -98 165 -136 223 -38 58
-70 109 -70 114 0 5 62 33 138 61 275 104 365 146 413 195 90 89 174 235 205
355 20 78 19 121 -4 172 -32 69 -98 90 -226 72 -181 -25 -501 -139 -889 -316
-151 -69 -148 -70 -170 107 -9 69 -18 140 -21 157 l-6 32 -124 -61 c-177 -89
-164 -99 -241 177 -42 153 -65 219 -74 217 -7 -2 -70 -43 -140 -93 -70 -49
-130 -89 -133 -89 -3 0 -27 55 -53 123 -26 67 -51 126 -55 131 -4 4 -81 -48
-171 -118 -141 -108 -168 -126 -200 -126 -40 0 -36 -6 -89 143 -7 20 -16 37
-21 37 -4 0 -36 -36 -70 -79 l-63 -80 -82 0 -81 -1 -113 155 c-62 85 -116 155
-119 155 -4 0 -65 -76 -136 -170z"/>
<path d="M1262 5104 c-166 -83 -197 -319 -56 -443 157 -138 395 -33 411 184
16 199 -183 345 -355 259z"/>
<path d="M4588 3161 c-75 -47 -139 -89 -142 -92 -3 -2 58 -40 135 -83 78 -43
142 -76 144 -74 9 8 17 338 9 337 -5 0 -71 -40 -146 -88z"/>
<path d="M3092 3175 c-73 -7 -135 -15 -137 -17 -3 -2 39 -66 93 -142 l97 -138
72 148 c40 82 73 152 73 157 0 9 -30 8 -198 -8z"/>
<path d="M1124 3033 c2 -10 10 -79 17 -153 7 -74 13 -136 14 -138 4 -5 255
149 255 157 0 8 -265 151 -281 151 -6 0 -8 -8 -5 -17z"/>
<path d="M2070 2617 c0 -8 122 -283 128 -289 4 -3 59 42 122 101 l114 108
-171 42 c-163 39 -193 45 -193 38z"/>
<path d="M4090 2549 c-74 -39 -141 -74 -147 -78 -8 -4 39 -42 124 -99 75 -50
139 -89 141 -87 6 5 31 243 31 298 1 20 -2 37 -6 37 -5 0 -69 -32 -143 -71z"/>
<path d="M490 2504 c0 -17 148 -293 201 -374 61 -94 159 -224 164 -218 2 2 8
54 14 117 l11 113 -64 102 c-35 55 -82 138 -105 184 l-41 82 -90 0 c-50 0 -90
-3 -90 -6z"/>
<path d="M3047 2241 l-179 -36 121 -113 121 -114 16 39 c9 21 36 85 60 142 25
57 43 107 42 111 -2 3 -83 -10 -181 -29z"/>
</g>
</svg>
